HIERARCHY
ROOT pelvis
{
  OFFSET 0 100 0
  CHANNELS 6 Xposition Yposition Zposition Zrotation Xrotation Yrotation
  JOINT pelvis_right_femur
  {
    OFFSET -10.78128 -3.44521 -0.5502486
    CHANNELS 3 Zrotation Xrotation Yrotation
    JOINT right_femur_tibia
    {
      OFFSET -0.8047443 -44.0398 -0.1307829
      CHANNELS 3 Zrotation Xrotation Yrotation
      JOINT right_tibia_foot
      {
        OFFSET 3.006224 -47.83518 -5
        CHANNELS 3 Zrotation Xrotation Yrotation
        End Site
        {
          OFFSET 0 -5 15
        }
      }
    }
  }
  JOINT pelvis_left_femur
  {
    OFFSET 10.78128 -3.44521 -0.5502486
    CHANNELS 3 Zrotation Xrotation Yrotation
    JOINT left_femur_tibia
    {
      OFFSET 0.8047443 -44.0398 -0.1307829
      CHANNELS 3 Zrotation Xrotation Yrotation
      JOINT left_tibia_foot
      {
        OFFSET -4.370144 -48.10324 -4.275266
        CHANNELS 3 Zrotation Xrotation Yrotation
        End Site
        {
          OFFSET 0 -5 15
        }
      }
    }
  }
  JOINT pelvis_spine1
  {
    OFFSET 0 6.468898 -3.129235
    CHANNELS 3 Zrotation Xrotation Yrotation
    JOINT spine1
    {
      OFFSET 0 23.15396 4.99043
      CHANNELS 3 Zrotation Xrotation Yrotation
      JOINT spine2
      {
        OFFSET 0 20.79997 -5.064912
        CHANNELS 3 Zrotation Xrotation Yrotation
        JOINT neck
        {
          OFFSET 0 14.38658 9.616178
          CHANNELS 3 Zrotation Xrotation Yrotation
          End Site
          {
            OFFSET 0 20 0
          }
        }
      }
      JOINT right_manubrium
      {
        OFFSET -5.722621 16.35077 3.967754
        CHANNELS 3 Zrotation Xrotation Yrotation
        JOINT right_clavicle
        {
          OFFSET -13.16364 1.694482 -4.693211
          CHANNELS 3 Zrotation Xrotation Yrotation
          JOINT right_humerus
          {
            OFFSET -28.5034 -0.3100689 -2.792744
            CHANNELS 3 Zrotation Xrotation Yrotation
            JOINT right_radius
            {
              OFFSET -25.15693 0.02248979 -1.271978
              CHANNELS 3 Zrotation Xrotation Yrotation
              End Site
              {
                OFFSET -15 0 0
              }
            }
          }
        }
      }
      JOINT left_manubrium
      {
        OFFSET 5.722621 16.35077 3.967754
        CHANNELS 3 Zrotation Xrotation Yrotation
        JOINT left_clavicle
        {
          OFFSET 13.16364 1.694482 -4.693211
          CHANNELS 3 Zrotation Xrotation Yrotation
          JOINT left_humerus
          {
            OFFSET 29.39168 -1.063119 -2.237045
            CHANNELS 3 Zrotation Xrotation Yrotation
            JOINT left_radius
            {
              OFFSET 24.59957 -0.9528479 0.9047498
              CHANNELS 3 Zrotation Xrotation Yrotation
              End Site
              {
                OFFSET 15 -0 -0
              }
            }
          }
        }
      }
    }
  }
}
MOTION
Frames: 16
Frame Time: 0.0416666666667
27.05763 104.8711 235.9097 1.478351 -6.604845 2.147087 1.068831 10.16279 7.532875 -2.23172e-09 34.14991 1.53743e-09 3.910872 -12.68882 -4.924998 -1.914348 -16.43064 -7.772058 1.787581e-09 18.73039 -2.426404e-09 -2.657018 -7.27038 19.85435 -2.099096 -0.07725547 7.501116 -0.4313995 10.07984 -3.966789 2.557243 21.57041 5.061228 1.396535 -16.73582 7.963069 2.793486 -21.19252 11.01799 81.99501 27.33072 -6.518446 -3.470135e-10 6.923111e-10 23.81277 -23.10094 14.69436 14.0097 3.246365 -14.78826 -2.887482 -92.46161 21.78359 23.9747 8.304938e-10 -1.191274e-10 -10.23995 -0.5416689 6.169067 14.9199
28.2697 105.2024 242.0347 1.71311 -7.097079 2.401248 0.5959857 8.482149 7.676275 -2.328198e-09 40.75556 1.482099e-09 4.045678 -10.13004 -5.497159 -3.021264 -13.49439 -8.812638 1.402704e-09 20.14765 -2.509458e-09 -2.435879 -7.783208 19.88332 -2.368416 -0.07554466 7.03418 -0.5535549 10.13023 -3.991223 2.592809 21.75073 5.259991 1.490277 -16.60254 8.170502 3.125507 -20.32908 10.92527 82.2824 27.43601 -7.198594 -4.382596e-10 8.728238e-10 22.47485 -22.69368 14.40618 13.51845 3.059695 -14.582 -3.060479 -91.62768 22.26462 22.93707 7.054712e-10 3.686494e-11 -9.904946 -0.4601495 6.288751 14.88234
29.4656 105.9051 247.891 2.110607 -7.750461 2.887375 0.03937463 5.549931 7.773255 -1.959002e-09 47.78258 9.806779e-10 4.48192 -7.671433 -6.333767 -4.331452 -9.385715 -10.03229 7.030254e-10 20.73379 -2.260527e-09 -1.941216 -9.018594 20.12791 -2.778343 -0.07945658 6.46831 -0.6593279 10.22846 -4.159678 2.625887 22.0658 5.517215 1.552815 -16.36096 8.474847 3.453064 -19.35604 10.84578 83.13719 27.50097 -8.463163 -5.043565e-10 1.182904e-09 20.90241 -22.2689 14.15408 12.85083 3.024558 -14.63098 -3.360629 -90.64041 22.8197 21.23483 5.211294e-10 2.522213e-10 -10.32359 -0.2898214 6.532482 14.6916
30.60039 106.8223 253.3702 2.479981 -8.283578 3.527469 -0.2522997 1.468838 7.782254 -1.102124e-09 52.61364 6.213846e-11 4.867862 -6.259974 -7.259315 -5.438437 -4.459372 -11.25667 -7.894196e-11 20.61882 -1.747648e-09 -1.370213 -10.7034 20.40509 -3.138389 -0.09999487 5.817011 -0.6324298 10.21335 -4.469525 2.673252 22.35833 5.691751 1.533363 -16.08794 8.78261 3.651473 -18.32099 10.70901 84.05853 27.43115 -10.10799 -4.178319e-10 1.509628e-09 19.22213 -21.34937 13.86912 11.80558 3.165773 -14.8927 -3.65934 -89.36537 23.47206 19.02509 3.825184e-10 4.171597e-10 -11.3452 -0.03237299 7.038482 14.23432
31.65508 107.7588 258.5398 2.723203 -8.49288 4.242627 -0.2620769 -3.156355 7.552245 -2.601068e-10 54.38403 -7.542442e-10 5.009802 -5.618594 -8.032021 -6.151233 0.5069809 -12.21998 -6.075184e-10 19.5676 -1.247055e-09 -0.858493 -12.54179 20.51935 -3.377073 -0.1262213 5.140197 -0.4798395 10.08058 -4.870858 2.71433 22.57442 5.801779 1.485186 -15.92808 9.041796 3.676313 -17.38622 10.53665 85.05137 27.29503 -11.87194 -2.39224e-10 1.692854e-09 17.60222 -20.30349 13.58683 10.7496 3.483794 -15.35777 -3.91042 -88.08906 23.97387 16.66871 3.338132e-10 4.687372e-10 -12.81776 0.3838693 7.672686 13.51121
32.62458 108.4837 263.5645 2.813336 -8.330478 4.959579 -0.04708281 -7.879873 7.02776 2.53557e-10 52.47394 -1.128187e-09 4.911756 -5.724351 -8.547396 -6.424274 4.923559 -12.75056 -7.719103e-10 17.57915 -7.996626e-10 -0.5304614 -14.39169 20.38668 -3.479921 -0.1122837 4.496097 -0.2264308 9.806399 -5.307778 2.746861 22.70967 5.852368 1.426779 -15.86623 9.221752 3.498261 -16.58598 10.33236 86.03582 27.12959 -13.54877 -3.131167e-12 1.653313e-09 16.11737 -19.39594 13.35208 9.897189 3.994074 -15.99648 -4.075053 -86.86609 24.21146 14.21021 3.682054e-10 3.832451e-10 -14.75588 0.9613619 8.287216 12.55736
33.47766 108.7962 268.4398 2.827572 -7.93441 5.618432 0.2864376 -12.46127 6.280193 9.370957e-10 47.45737 -1.541989e-09 4.480567 -6.636916 -8.739951 -6.447885 8.604886 -13.02337 -9.445163e-10 15.30076 -4.932424e-11 -0.1939966 -16.22666 20.22457 -3.519657 -0.04177436 3.918107 0.0906495 9.408066 -5.719185 2.747393 22.79959 5.85403 1.38775 -15.82072 9.285011 3.183396 -15.82186 10.10671 86.57399 27.00438 -15.02847 2.963819e-10 1.471847e-09 14.60229 -18.41356 12.98967 9.048133 4.659328 -16.76458 -4.150221 -85.34737 24.2933 11.4862 3.55715e-10 2.546082e-10 -17.0984 1.740196 8.99327 11.27497
34.23337 108.6566 273.4937 2.657267 -7.284766 6.182222 0.7107422 -16.79464 5.338925 8.387316e-10 40.45127 -1.099686e-09 3.988282 -7.403212 -8.848849 -6.195889 11.74844 -12.81748 -5.582647e-10 13.39465 3.297957e-10 -0.4087808 -17.75878 19.56986 -3.409253 0.1202982 3.352991 0.440756 8.911876 -6.107731 2.779406 22.88307 5.846346 1.377323 -15.89361 9.325084 2.780541 -15.04854 9.868939 87.50422 26.95175 -16.45201 5.591179e-10 1.024322e-09 13.08338 -17.89516 12.82765 8.62548 5.393246 -17.55564 -4.130099 -84.25937 24.10489 8.817769 4.478011e-10 -2.865899e-11 -19.59336 2.555197 9.396274 10.07533
34.85526 108.0291 278.6153 2.514227 -6.703803 6.646186 1.101525 -20.58834 4.399875 1.185432e-09 32.85816 -1.024047e-09 3.292526 -8.520597 -8.794776 -5.960303 14.23335 -12.5971 -4.454072e-10 12.36412 1.063769e-09 -0.5512295 -19.11767 19.08681 -3.311235 0.3329411 2.874697 0.7706825 8.404667 -6.406356 2.795619 23.02974 5.820564 1.40365 -15.92702 9.296541 2.387542 -14.2439 9.658234 88.069 26.97282 -17.68472 8.442229e-10 5.724107e-10 11.48073 -17.25701 12.49795 8.105432 6.128767 -18.33755 -4.062864 -83.04164 23.92037 6.078553 4.227066e-10 -2.541607e-10 -22.06818 3.460522 9.895615 8.73168
35.32545 107.0322 283.7287 2.371594 -6.247061 6.991901 1.47079 -23.64253 3.596766 1.616772e-09 26.1666 -1.033166e-09 2.438175 -9.51377 -8.675213 -5.771588 16.22799 -12.46254 -4.987354e-10 12.6055 1.858309e-09 -0.7122119 -20.08973 18.68982 -3.19785 0.5535554 2.454642 1.055769 7.931637 -6.596942 2.81598 23.20329 5.774537 1.461762 -15.96407 9.230359 2.071097 -13.41484 9.472198 88.32651 27.0463 -18.68693 1.118542e-09 1.466568e-10 9.857851 -16.4762 12.03216 7.504703 6.733604 -18.96506 -3.96347 -81.85709 23.79683 3.610198 3.428515e-10 -4.277974e-10 -24.04192 4.343556 10.43884 7.429764
35.67959 105.8804 288.9565 2.134395 -5.904415 7.228136 1.905357 -25.66754 3.077952 1.585535e-09 21.37498 -6.876008e-10 1.59852 -9.96042 -8.631802 -5.528875 17.76909 -12.36058 -3.159661e-10 14.19101 2.161246e-09 -1.234303 -20.38796 18.11032 -2.977839 0.7458113 2.07874 1.282193 7.519795 -6.675755 2.892937 23.36073 5.68479 1.514105 -16.07946 9.188396 1.843896 -12.66649 9.306077 88.6747 27.08174 -19.40331 1.340695e-09 -2.868086e-10 8.499522 -15.76761 11.65316 7.046212 7.088853 -19.28316 -3.831379 -81.24742 23.77229 1.974372 3.653142e-10 -6.497692e-10 -25.01604 4.98265 10.83624 6.531434
35.98011 104.8838 294.4629 1.824025 -5.787128 7.421492 2.392576 -26.69187 2.984822 9.379308e-10 20.15486 3.696478e-11 0.9317371 -9.383332 -8.811771 -5.306773 19.24327 -12.41651 2.058717e-10 17.3379 1.69844e-09 -2.166498 -19.95141 17.33208 -2.659769 0.8717721 1.70836 1.420879 7.23763 -6.658267 3.051714 23.51902 5.567212 1.546407 -16.2889 9.236459 1.771539 -12.00154 9.169034 89.40865 27.0135 -19.92702 1.482832e-09 -6.628443e-10 7.457646 -15.17757 11.44966 6.746632 7.092142 -19.2123 -3.718548 -81.43835 23.95522 1.401024 5.473911e-10 -9.221391e-10 -24.6938 5.248628 11.04773 6.243418
36.26451 104.2794 300.2136 1.532698 -5.940056 7.586667 2.948595 -26.20479 3.268788 1.129378e-10 21.49464 7.538881e-10 0.2589618 -8.443767 -8.979017 -5.099253 19.84772 -12.59346 7.118197e-10 22.08774 9.247964e-10 -3.126474 -18.74524 16.70604 -2.290162 0.9270029 1.485491 1.463589 7.132673 -6.498113 3.234214 23.65838 5.394683 1.572504 -16.51409 9.265023 1.811805 -11.54706 9.099835 89.90537 26.86811 -20.02559 1.582172e-09 -8.937808e-10 6.827787 -14.55964 11.25041 6.460341 6.775548 -18.83571 -3.631023 -82.05398 24.2824 1.859196 7.632228e-10 -1.129783e-09 -23.22539 5.266719 11.24143 6.306598
36.53694 104.2035 306.1339 1.25907 -6.318435 7.669336 3.661612 -24.27487 3.814649 -6.551222e-10 23.51823 1.341809e-09 -0.5637123 -7.815778 -9.043542 -4.826611 19.25342 -12.75607 1.09918e-09 28.67477 1.364289e-10 -4.065618 -16.85281 16.33604 -1.851359 0.9590544 1.471867 1.454525 7.175336 -6.211547 3.4293 23.84123 5.141157 1.598195 -16.74726 9.226392 1.889669 -11.31842 9.125057 90.18425 26.68342 -19.78676 1.697576e-09 -1.014398e-09 6.555516 -13.86596 11.01733 6.123212 6.260974 -18.32695 -3.541338 -83.08351 24.70375 3.110012 9.569849e-10 -1.262183e-09 -21.07146 5.171663 11.51105 6.515666
36.78505 104.6241 312.0422 1.182575 -6.989038 7.621536 4.260759 -20.71644 4.392705 -7.82857e-10 25.40727 1.336942e-09 -1.405095 -8.063229 -8.896786 -4.609134 16.84199 -12.80346 8.616491e-10 36.09685 3.507249e-11 -4.673909 -14.72343 16.64922 -1.516121 1.052327 1.784826 1.346241 7.371711 -5.768867 3.59762 24.23361 4.87533 1.653351 -16.87539 9.120254 1.974062 -11.40977 9.294125 90.26585 26.58366 -19.13281 1.836555e-09 -9.959594e-10 6.73823 -13.40131 10.71468 5.868571 5.719128 -17.84766 -3.448711 -84.54325 25.17298 4.820547 9.626773e-10 -1.228801e-09 -18.83233 5.057789 11.88551 6.739557
36.94609 105.3079 317.4883 1.41254 -7.882107 7.385697 4.535996 -15.94535 4.768083 4.07696e-10 25.98661 1.645933e-10 -2.326984 -9.783313 -8.366565 -4.532121 12.60202 -12.83045 -9.212543e-10 42.20787 1.693182e-09 -4.411684 -12.94949 17.91893 -1.436158 1.180961 2.425509 1.14008 7.663529 -5.186291 3.651584 24.71853 4.614183 1.726802 -16.72885 8.863024 1.973305 -11.85525 9.558224 89.25049 26.53091 -17.86523 2.030828e-09 -7.621858e-10 7.343231 -12.97289 10.07828 5.52206 5.317314 -17.51944 -3.378297 -85.44897 25.54244 6.401459 6.197473e-10 -9.461678e-10 -17.00908 5.146484 12.55426 6.516202
